# xmcd CD database file
#
# Track frame offsets:
#	150
#	9930
#	20622
#	29077
#	39694
#	51032
#	63506
#	74696
#	85652
#	97865
#	110071
#	123342
#	132942
#	145835
#	157233
#	167614
#	179295
#	190892
#	200241
#	211902
#	222696
#	234767
#	246514
#	258313
#	283486
#
# Disc length: 3922 seconds
#
# Revision: 0
# Processed by: cddbd v1.5.2PL0 Copyright (c) Steve Scherf et al.
# Submitted via: Feurio! 1.68 - http://www.feurio.com
#
DISCID=820f5019
DTITLE=Jimmy Donley - The Shape You Left Me In
DYEAR=2010
DGENRE=
TTITLE0=Come Along
TTITLE1=Child Love
TTITLE2=Kickin' My Hound Around
TTITLE3=Baby How Long
TTITLE4=Please Baby Come Home
TTITLE5=Born To Be A Loser
TTITLE6=Radio, Jukebox, And T.V.
TTITLE7=I'm Alone
TTITLE8=The Shape You Left Me In
TTITLE9=Arleeta
TTITLE10=What Must I Do
TTITLE11=Give Me My Freedom
TTITLE12=Now I Know
TTITLE13=I Can't Love You Like You Want Me To Do
TTITLE14=Our Love
TTITLE15=I've Been There
TTITLE16=My Baby's Gone
TTITLE17=I Gotta Go
TTITLE18=South Of The Border
TTITLE19=The Trail Of The Lonesome Pine
TTITLE20=Child Love
TTITLE21=Arleeta
TTITLE22=Radio, Jukeboy, And T.V.
TTITLE23=I'm Alone
TTITLE24=I'm Aone
EXTD=
EXTT0=
EXTT1=
EXTT2=
EXTT3=
EXTT4=
EXTT5=
EXTT6=
EXTT7=
EXTT8=
EXTT9=
EXTT10=
EXTT11=
EXTT12=
EXTT13=
EXTT14=
EXTT15=
EXTT16=
EXTT17=
EXTT18=
EXTT19=
EXTT20=
EXTT21=
EXTT22=
EXTT23=
EXTT24=
PLAYORDER=
